<svg width="198" height="64" viewBox="0 0 198 64" fill="none" xmlns="http://www.w3.org/2000/svg">
<mask id="mask0_267_349" style="mask-type:alpha" maskUnits="userSpaceOnUse" x="0" y="0" width="198" height="64">
<path d="M197.062 36.6501C197.105 37.0791 197.127 37.508 197.127 37.937C197.141 38.366 197.148 38.795 197.148 39.224C197.148 41.3436 196.932 43.3371 196.498 45.2044C196.079 47.0465 195.494 48.7498 194.742 50.3143C194.005 51.8536 193.123 53.2414 192.097 54.4779C191.071 55.7143 189.966 56.7489 188.781 57.5817C187.595 58.4396 186.353 59.0957 185.052 59.5499C183.751 60.0041 182.594 59.9685 181.279 59.9685C180.383 59.9685 179.582 59.7013 178.657 59.5499C177.746 59.3985 176.473 58.9859 175.548 58.9606C174.638 58.9354 173.388 59.2375 172.463 59.4646C171.552 59.6917 155.272 64 153.949 64C156.933 63.2175 164.935 60.0841 166.292 55.4331C167.173 52.4094 167.236 48.9433 167.037 47.3241C166.732 44.8504 166.292 43.3386 165.41 40.8189C167.037 42.8346 168.728 44.5609 170.332 45.3937C171.936 46.2011 173.439 46.8194 174.841 47.2484C176.258 47.6773 177.529 47.9549 178.657 48.0811C179.784 48.2072 180.709 48.2703 181.431 48.2703C182.125 48.2703 182.826 48.2199 183.534 48.1189C184.257 47.9928 184.98 47.7909 185.702 47.5133C185.153 46.4535 184.51 45.5829 183.773 44.9016C183.036 44.195 182.241 43.5894 181.388 43.0848C180.55 42.5801 179.668 42.1259 178.743 41.7221C177.833 41.3184 176.93 40.8894 176.034 40.4352C175.137 39.9557 174.27 39.4132 173.432 38.8076C172.594 38.1767 171.828 37.3819 171.134 36.423C170.282 35.2622 169.66 33.9374 169.27 32.4486C168.88 30.9598 168.641 29.3449 168.554 27.6037C168.063 27.9065 167.63 28.2093 167.254 28.5121C166.878 28.7897 166.56 29.0294 166.3 29.2313C165.996 29.4837 165.729 29.7108 165.498 29.9126C165.975 27.6416 166.632 25.6355 167.471 23.8943C168.323 22.1532 169.277 20.6391 170.332 19.3522C171.387 18.0653 172.507 16.9802 173.692 16.097C174.892 15.2138 176.077 14.4821 177.248 13.9017C179.993 12.5643 182.956 11.8073 186.136 11.6306C187.075 11.6054 188.101 11.5423 189.214 11.4414C190.168 11.3404 191.274 11.189 192.531 10.9872C193.803 10.7853 195.161 10.4825 196.606 10.0787C196.231 11.0124 195.92 12.0344 195.674 13.1447C195.443 14.255 195.262 15.3905 195.132 16.5512C195.002 17.712 194.908 18.8602 194.85 19.9957C194.807 21.106 194.785 22.1406 194.785 23.0995C194.785 23.7051 194.793 24.2855 194.807 24.8406C194.822 25.3957 194.843 25.8878 194.872 26.3168C194.901 26.8215 194.937 27.3009 194.981 27.7551C192.538 26.014 190.226 24.7901 188.043 24.0836C185.861 23.377 183.802 23.0238 181.865 23.0238C181.287 23.0238 180.731 23.0616 180.196 23.1373C179.661 23.1878 179.126 23.2509 178.592 23.3266C178.707 24.3107 178.924 25.1308 179.242 25.7869C179.574 26.443 179.907 26.9729 180.239 27.3766C180.629 27.8308 181.056 28.1841 181.518 28.4364C182.501 28.9159 183.563 29.5089 184.705 30.2154C185.861 30.922 187.01 31.7799 188.152 32.7893C189.308 33.7734 190.406 34.9468 191.447 36.3094C192.502 37.6468 193.427 39.2113 194.222 41.003C194.713 40.3721 195.197 39.6908 195.674 38.959C196.151 38.2272 196.614 37.4576 197.062 36.6501Z" fill="white"/>
<path d="M163.647 42.3307C163.488 44.0183 163.15 48.9196 162.632 50.3155C162.114 51.6906 161.473 52.9303 160.71 54.0345C159.947 55.1179 159.098 56.0659 158.163 56.8785C157.227 57.691 156.256 58.3577 155.248 58.8786C154.24 59.4203 153.226 59.8161 152.204 60.0661C151.196 60.337 150.239 60.4724 149.332 60.4724C147.001 60.4724 144.863 60.0349 142.92 59.1598C140.977 58.3056 139.257 57.0139 137.76 55.2846C136.278 53.5553 135.04 51.399 134.047 48.8155C133.053 46.2111 132.341 43.1797 131.909 39.7212C132.24 39.8878 132.564 40.0337 132.881 40.1587C133.212 40.2837 133.536 40.3983 133.852 40.5025C134.111 37.1481 134.809 34.2 135.947 31.6582C137.098 29.1163 138.58 27.0016 140.394 25.314C142.208 23.6056 144.302 22.3243 146.677 21.47C149.052 20.595 151.304 19.6536 154.39 19.1496C156.001 18.8864 157.916 18.6457 159.239 18.6457C161.002 18.6457 166.291 18.6457 168.054 18.1417C166.291 18.6457 162.596 24.2306 162.437 25.7516C162.279 27.2516 162.2 28.7726 162.2 30.3143C162.2 31.0852 162.222 31.9186 162.265 32.8145C162.322 33.7104 162.43 34.7521 162.589 35.9397C161.667 35.0438 160.789 34.2937 159.955 33.6895C159.12 33.0853 158.321 32.6061 157.558 32.252C156.81 31.8978 156.097 31.6478 155.421 31.5019C154.744 31.3561 154.111 31.2831 153.521 31.2831C152.413 31.2831 151.268 31.4915 150.088 31.9082C148.922 32.304 147.807 32.8978 146.742 33.6895C145.691 34.4813 144.741 35.4501 143.892 36.596C143.057 37.7419 142.424 39.0649 141.992 40.565C142.452 40.4608 142.92 40.3358 143.395 40.1899C143.884 40.0233 144.374 39.8253 144.863 39.5961C144.791 40.0545 144.741 40.4816 144.712 40.8775C144.698 41.2733 144.69 41.6171 144.69 41.9088C144.69 43.4714 144.885 44.8673 145.273 46.0965C145.676 47.3258 146.216 48.3571 146.893 49.1905C147.584 50.0239 148.39 50.6593 149.311 51.0968C150.246 51.5344 151.254 51.7531 152.333 51.7531C152.952 51.7531 153.665 51.6802 154.471 51.5344C155.277 51.3885 156.155 51.0968 157.105 50.6593C158.069 50.2218 159.098 49.6072 160.192 48.8155C161.286 48.0237 163.427 44.8504 163.647 42.3307Z" fill="white"/>
<path d="M133.615 27.2126C131.066 29.6923 129.786 35.0512 129.61 37.6273C129.433 40.1884 129.246 42.941 129.246 45.5623C129.246 47.5358 129.936 49.7474 130.338 51.0176C131.279 53.9932 131.794 56.4729 135.436 58.4567C134.969 58.4567 129.29 57.1924 128.81 57.1472C128.331 57.102 127.802 57.0794 127.221 57.0794C126.187 57.0794 125.122 57.1548 124.025 57.3054C122.928 57.4561 123.937 57.1786 122.689 57.4648C120.868 55.4811 120.868 54.4892 119.414 51.0176C118.683 48.5379 118.684 47.0501 118.686 44.0745C118.686 42.1461 118.684 41.0989 119.05 38.6192C119.414 36.6354 120.868 33.6598 122.325 32.6679C122.325 32.6679 122.653 32.252 123.053 32.172C123.835 31.9912 124.416 31.748 125.297 31.748C126.105 31.507 127.061 31.2441 127.942 30.7401C128.767 30.2686 132.644 27.6043 133.615 27.2126Z" fill="white"/>
<path d="M120.449 30.2362C119.127 30.7401 116.482 33.6194 115.6 34.7716C114.719 35.9239 114.439 36.6552 114.212 37.7278C113.985 38.8005 113.822 39.8325 113.723 40.8238C113.638 41.8152 113.595 42.7578 113.595 43.6517C113.595 45.4069 113.758 47.0158 114.084 48.4785C114.425 49.9249 114.857 51.2495 115.382 52.4521C115.907 53.6385 116.496 54.7111 117.148 55.67C117.815 56.6288 118.474 57.4821 119.127 58.2297C118.559 58.2297 118.034 58.1972 117.552 58.1321C117.084 58.0671 116.566 58.0346 115.999 58.0346C115.389 58.0346 114.794 58.0834 114.212 58.1809C113.631 58.2622 113.035 58.3841 112.425 58.5466C111.829 58.7253 111.205 58.9447 110.553 59.2048C109.9 59.4648 109.198 59.7736 108.446 60.1311C107.794 58.1972 107.269 56.2632 106.872 54.3292C106.475 52.3952 106.191 50.4612 106.021 48.5273C105.312 50.1362 104.716 51.8183 104.234 53.5735C103.752 55.3287 103.404 57.2139 103.191 59.2292C103.021 59.2292 102.66 59.2373 102.106 59.2535C101.567 59.2698 100.901 59.3104 100.107 59.3754C99.3265 59.4567 98.4684 59.5786 97.5323 59.7411C96.5961 59.9199 95.66 60.1636 94.7239 60.4724C94.5254 58.2947 94.192 56.2469 93.724 54.3292C93.2559 52.3952 92.6602 50.5669 91.9369 48.8442C91.7667 50.7131 91.4759 52.5902 91.0646 54.4755C90.6533 56.3607 90.1285 58.2459 89.4902 60.1311C86.5684 58.7335 83.6537 58.0346 80.7461 58.0346C80.3064 58.0346 79.7816 58.0671 79.1717 58.1321C78.5618 58.1809 77.952 58.2297 77.3421 58.2784C79.5689 55.8244 81.2567 53.0778 82.4056 50.0387C83.5686 46.9833 84.3037 46.0686 84.3037 42.3307C84.3037 41.9081 84.3321 40.7863 84.3037 40.3149C84.2328 39.1366 83.5274 38.2278 82.9813 37.2913C82.0997 35.7795 81.4426 35.1566 80.3366 33.2598C79.455 31.748 76.8102 28.2205 75.4878 27.2126C76.0243 27.7165 78.9083 29.1678 79.8958 29.7323C80.7773 30.2362 81.5913 30.7401 82.9813 30.7401C84.3037 30.7401 85.3274 30.9345 86.7883 30.6582C88.2492 30.382 89.7952 29.8538 91.4263 29.0737C92.3624 30.5526 93.2914 32.2591 94.2133 34.193C95.0076 35.8507 95.8373 37.8416 96.7025 40.1656C97.5819 42.4734 98.3762 45.0656 99.0853 47.9422L100.575 43.7004C101.057 42.319 101.518 40.9864 101.958 39.7025C102.411 38.4185 102.83 37.159 103.213 35.9239C103.61 34.6725 103.964 33.4211 104.277 32.1697C104.603 30.902 104.893 29.5856 105.149 28.2205C106.17 28.838 107.212 29.3175 108.276 29.6588C109.34 30 110.368 30.252 111.361 30.4145C112.368 30.5607 113.311 30.6501 114.191 30.6826C115.07 30.6989 119.811 30.2362 120.449 30.2362Z" fill="white"/>
<path d="M47.7171 22.6772C48.6676 22.6772 52.0253 25.6141 52.4761 26.2234C52.927 26.8131 53.356 27.4421 53.7632 28.1104C52.3961 28.4642 51.1018 29.0343 49.8801 29.8205C48.6584 30.5871 47.5968 31.5601 46.695 32.7395C45.7934 33.9189 45.0807 35.2948 44.5571 36.8673C44.019 38.4202 43.75 40.1499 43.75 42.0566C43.75 44.2188 44.019 46.1746 44.5571 47.924C45.0807 49.6538 45.8152 51.2066 46.7605 52.5826C47.6913 53.9389 48.7966 55.1183 50.0764 56.1207C51.3563 57.1035 52.7452 57.9193 54.2432 58.5679C55.7412 59.197 57.3191 59.6687 58.9771 59.9832C60.6351 60.2977 62.3076 60.455 63.9946 60.455C64.5909 60.455 64.9825 60.4943 65.6224 60.455C66.2623 60.4353 66.9615 60.455 67.4079 60.455C67.8543 60.455 68.747 60.455 69.5357 60.455C70.0448 60.3567 78.6646 60.1405 79.0137 59.9832C77.2282 59.9778 69.8993 58.7252 69.5357 58.2731C69.1576 57.8013 68.8158 57.3296 68.5104 56.8578C69.8921 56.504 71.1937 55.9733 72.4154 55.2657C73.6225 54.5581 74.6842 53.6539 75.6004 52.5531C76.5167 51.4327 77.2438 50.1255 77.7819 48.6317C78.3055 47.1181 78.5673 45.3884 78.5673 43.4424C78.5673 41.1622 78.2619 39.1081 77.6511 37.2801C77.0257 35.4324 76.1749 33.7911 75.0987 32.3562C74.0224 30.9213 72.7571 29.6927 71.3028 28.6706C69.8484 27.6485 68.285 26.8033 66.6125 26.1349C64.94 25.4666 63.202 24.9752 61.3986 24.6607C59.5807 24.3462 59.1778 24.6929 57.4147 24.189C56.5594 23.9445 55.2107 23.685 54.3291 23.685C51.6843 23.1811 52.6187 23.1811 51.6843 23.1811L47.7171 22.6772ZM53.2178 39.9927C53.2178 38.3219 53.4869 36.9558 54.025 35.8943C54.5486 34.8329 55.2467 33.9877 56.1193 33.3587C56.2793 33.8697 56.432 34.4004 56.5774 34.9508C56.7228 35.4815 56.8537 36.0319 56.9701 36.602C57.9881 36.2088 58.8462 35.9435 59.5443 35.8059C60.2278 35.6683 60.8023 35.5995 61.2677 35.5995C62.184 35.5995 63.1075 35.8059 64.0383 36.2187C64.9691 36.6314 65.8053 37.231 66.547 38.0172C67.2888 38.7838 67.8996 39.7273 68.3795 40.8477C68.8449 41.9485 69.0776 43.1967 69.0776 44.5923C69.0776 45.9289 68.8304 47.1574 68.3359 48.2778C67.8269 49.3786 67.1651 50.4007 66.3507 51.3442C66.2198 50.7349 66.1253 50.1157 66.0671 49.4867C65.9944 48.8577 65.9435 48.209 65.9144 47.5407C64.8382 48.209 63.8856 48.671 63.0566 48.9265C62.2276 49.182 61.5004 49.3098 60.875 49.3098C59.9152 49.3098 58.9771 49.1034 58.0609 48.6906C57.1446 48.2582 56.3302 47.639 55.6175 46.8331C54.8904 46.0272 54.3086 45.0542 53.8723 43.9141C53.436 42.7544 53.2178 41.4473 53.2178 39.9927Z" fill="white"/>
<path d="M53.0069 62.9921C51.2437 62.9921 45.0725 62.4882 43.3094 62.4882C42.4278 62.4882 41.5462 62.4882 40.2238 61.9843C37.1382 60.9764 37.2712 61.3043 35.8158 60.4724C34.0526 59.4646 32.7302 58.4567 30.9671 59.4646C29.2039 60.4724 28.5049 60.9082 27.1657 61.1371C25.8438 61.3659 24.5742 61.4803 23.3567 61.4803C20.2434 61.4803 17.391 60.8319 14.7995 59.5352C12.2079 58.2385 9.92081 56.2934 7.93804 53.6999C5.95527 51.1065 4.29427 47.8646 2.95503 43.9744C1.63319 40.0588 0.685287 35.5075 0.111328 30.3206C0.51136 30.524 0.937481 30.7147 1.38969 30.8927C1.8419 31.0707 2.29411 31.2233 2.74632 31.3504C3.05939 26.1889 3.9812 21.663 5.51176 17.7728C7.04232 13.8572 9.02509 10.59 11.4601 7.97108C13.9124 5.32677 16.7387 3.34353 19.939 2.02137C23.1567 0.673792 26.6091 0 30.2964 0C31.9834 0 33.7836 0.12713 35.6968 0.381391C37.6274 0.635653 44.6269 1.43095 46.8357 2.01575C43.3094 2.51969 41.019 6.28025 40.7581 8.61945C40.5146 10.9332 40.6646 13.1024 41.5462 15.622C42.4278 18.1417 45.0725 23.1811 48.1581 27.7165C40.6646 21.6693 38.7318 20.7604 37.7056 20.0231C36.6795 19.2603 35.6707 18.6628 34.6793 18.2305C33.7053 17.7728 32.7487 17.455 31.8095 17.277C30.8703 17.0736 29.9746 16.9719 29.1223 16.9719C27.5222 16.9719 25.8699 17.3025 24.1654 17.9635C22.4609 18.5992 20.8434 19.54 19.3129 20.7858C17.7997 22.0317 16.4431 23.5573 15.243 25.3625C14.0429 27.1424 13.1472 29.1892 12.5558 31.5029C13.2689 31.3504 13.9559 31.1597 14.6168 30.9309C15.2778 30.6766 15.93 30.3969 16.5735 30.0918C16.4692 31.2105 16.417 32.253 16.417 33.2192C16.417 35.6093 16.704 37.745 17.2779 39.6266C17.8519 41.4827 18.6346 43.0591 19.6259 44.3558C20.6173 45.6271 21.7913 46.606 23.148 47.2925C24.5046 47.9536 25.9656 48.2842 27.5309 48.2842C28.4179 48.2842 29.4267 48.1698 30.5572 47.9409C31.7052 47.6867 32.9227 47.229 34.2097 46.5679C35.4968 45.8814 37.9508 44.0297 39.3422 42.8346C36.2566 52.4094 46.1656 62.7069 53.0069 62.9921Z" fill="white"/>
</mask>
<g mask="url(#mask0_267_349)">
<rect x="-13.1128" y="-2.01575" width="224.806" height="78.6142" fill="url(#paint0_linear_267_349)"/>
</g>
<defs>
<linearGradient id="paint0_linear_267_349" x1="180.838" y1="51.4173" x2="30.3463" y2="35.7593" gradientUnits="userSpaceOnUse">
<stop stop-color="#FF0000"/>
<stop offset="0.5" stop-color="#FF6A00"/>
<stop offset="0.75" stop-color="#FF9F00"/>
<stop offset="1" stop-color="#FFD400"/>
</linearGradient>
</defs>
</svg>
